<svg width="32" height="32" viewBox="0 0 32 32" fill="none" xmlns="http://www.w3.org/2000/svg">
  <!-- Star 1 -->
  <path d="M16 2L17.5 8.5L24 10L17.5 11.5L16 18L14.5 11.5L8 10L14.5 8.5L16 2Z" fill="#000000"/>
  <!-- Star 2 -->
  <path d="M8 20L8.5 22L10.5 22.5L8.5 23L8 25L7.5 23L5.5 22.5L7.5 22L8 20Z" fill="#000000"/>
  <!-- Star 3 -->
  <path d="M24 20L24.5 22L26.5 22.5L24.5 23L24 25L23.5 23L21.5 22.5L23.5 22L24 20Z" fill="#000000"/>
  <!-- Star 4 -->
  <path d="M6 26L6.3 27L7.3 27.3L6.3 27.6L6 28.6L5.7 27.6L4.7 27.3L5.7 27L6 26Z" fill="#000000"/>
  <!-- Star 5 -->
  <path d="M26 26L26.3 27L27.3 27.3L26.3 27.6L26 28.6L25.7 27.6L24.7 27.3L25.7 27L26 26Z" fill="#000000"/>
  <!-- Star 6 -->
  <path d="M4 16L4.3 17L5.3 17.3L4.3 17.6L4 18.6L3.7 17.6L2.7 17.3L3.7 17L4 16Z" fill="#000000"/>
  <!-- Star 7 -->
  <path d="M28 16L28.3 17L29.3 17.3L28.3 17.6L28 18.6L27.7 17.6L26.7 17.3L27.7 17L28 16Z" fill="#000000"/>
</svg>

